<!-- Generator: Adobe Illustrator 25.0.1, SVG Export Plug-In  -->
<svg version="1.1" xmlns="http://www.w3.org/2000/svg" xmlns:xlink="http://www.w3.org/1999/xlink" x="0px" y="0px" width="1280px"
	 height="1024px" viewBox="0 0 1280 1024" style="overflow:visible;enable-background:new 0 0 1280 1024;" xml:space="preserve">
<style type="text/css">
	.st0{fill:none;}
	.st1{fill:#73ADCA;stroke:#FFFFFF;stroke-width:5;stroke-miterlimit:10;}
	.st2{fill:#185782;stroke:#FFFFFF;stroke-width:5;stroke-miterlimit:10;}
	.st3{fill:#7D82B5;stroke:#FFFFFF;stroke-width:5;stroke-miterlimit:10;}
	.st4{fill:none;stroke:#73ADCA;stroke-miterlimit:10;}
</style>
<defs>
</defs>
<rect class="st0" width="1280" height="1024"/>
<g>
	<path class="st1" d="M930.68,467.9c-86.25,0.98-158.91-70.2-159.89-156.61c-0.99-87.92,70.68-160.68,158.36-160.78
		c86.93-0.09,157.58,70.53,158.01,157.92v0.78C1087.17,396.21,1017.54,466.91,930.68,467.9z"/>
	<path class="st1" d="M930.68,467.9c-86.25,0.98-158.91-70.2-159.89-156.61c-0.99-87.92,70.68-160.68,158.36-160.78
		c86.93-0.09,157.58,70.53,158.01,157.92v0.78C1087.17,396.21,1017.54,466.91,930.68,467.9z"/>
	<path onmouseover="opacity: 0.8; transition: all 0.5s;" class="st2" d="M1087.16,309.21c0.01,87-69.62,157.7-156.48,158.69
		c-86.25,0.98-158.91-70.2-159.89-156.61c-0.99-87.92,70.68-160.68,158.36-160.78v158.7H1087.16z"/>
</g>
<path onmouseover="opacity: 0.8; transition: all 0.5s;" class="st3" d="M1087.16,308.43v0.78H929.15v-158.7
	C1016.07,150.42,1086.73,221.04,1087.16,308.43z"/>
<g>
	<path class="st4" d="M946.5,695.31c-30.49,9.76-60.99,19.56-88.96,35.54c-16.22,9.27-24.97,2.38-30.14-13
		c-5.38-16-11.7-31.81-15.45-48.2c-5.05-22.06-17.61-28.33-38.79-24.16c-14.75,2.91-29.95,5.08-44.93,4.95
		c-39.02-0.33-58.51-23.59-47.75-60.38c5.5-18.81-5.57-32.49-6.71-48.89c-0.95-13.8-8.34-27.01-2.58-41.51
		c3.68-9.25-3.46-11.92-10.18-15.29c-20.52-10.29-21.97-25.93-11.39-44.43c0.44-0.77,0.75-1.69,1.38-2.27
		c39.39-36.3,35.29-83.74,35.02-131.01C685.34,186.55,786.18,86,906.52,85.33c33.88-0.19,67.44,2.88,100.7,9.48
		c152.43,30.23,203.95,196.12,139.77,321.64c-9.04,17.68-25.44,31.78-39.22,46.82c-41.29,45.08-68.18,95.06-58.69,159.04
		c1.93,13.02,0.2,26.63-0.28,39.95c-0.23,6.44-2.04,13.11-10.12,13"/>
</g>
</svg>
