<?xml version="1.0" encoding="utf-8"?>
<!-- Generator: Adobe Illustrator 25.0.1, SVG Export Plug-In . SVG Version: 6.00 Build 0)  -->
<svg version="1.1" xmlns="http://www.w3.org/2000/svg" xmlns:xlink="http://www.w3.org/1999/xlink" x="0px" y="0px"
	 viewBox="0 0 1280 1024" style="enable-background:new 0 0 1280 1024;" xml:space="preserve">
<g id="grid">
	<g>
	</g>
</g>
<g id="bg">
	<rect style="fill:none;" width="1280" height="1024"/>
</g>
<g id="graphic">
	<g>
		<path style="fill:#73ADCA;stroke:#FFFFFF;stroke-width:5;stroke-miterlimit:10;" d="M930.68,467.9
			c-86.25,0.98-158.91-70.2-159.89-156.61c-0.99-87.92,70.68-160.68,158.36-160.78c86.93-0.09,157.58,70.53,158.01,157.92v0.78
			C1087.17,396.21,1017.54,466.91,930.68,467.9z"/>
		<path style="fill:#73ADCA;stroke:#FFFFFF;stroke-width:5;stroke-miterlimit:10;" d="M930.68,467.9
			c-86.25,0.98-158.91-70.2-159.89-156.61c-0.99-87.92,70.68-160.68,158.36-160.78c86.93-0.09,157.58,70.53,158.01,157.92v0.78
			C1087.17,396.21,1017.54,466.91,930.68,467.9z"/>
		
			<path onmouseover="opacity: 0.8; transition: all 0.5s;" style="fill:#185782;stroke:#FFFFFF;stroke-width:5;stroke-miterlimit:10;" d="
			M1087.16,309.21c0.01,87-69.62,157.7-156.48,158.69c-86.25,0.98-158.91-70.2-159.89-156.61
			c-0.99-87.92,70.68-160.68,158.36-160.78v158.7H1087.16z"/>
	</g>
	
		<path onmouseover="opacity: 0.8; transition: all 0.5s;" style="fill:#7D82B5;stroke:#FFFFFF;stroke-width:5;stroke-miterlimit:10;" d="
		M1087.16,308.43v0.78H929.15v-158.7C1016.07,150.42,1086.73,221.04,1087.16,308.43z"/>
	<g>
		<path style="fill:none;stroke:#73ADCA;stroke-miterlimit:10;" d="M946.5,695.31c-30.49,9.76-60.99,19.56-88.96,35.54
			c-16.22,9.27-24.97,2.38-30.14-13c-5.38-16-11.7-31.81-15.45-48.2c-5.05-22.06-17.61-28.33-38.79-24.16
			c-14.75,2.91-29.95,5.08-44.93,4.95c-39.02-0.33-58.51-23.59-47.75-60.38c5.5-18.81-5.57-32.49-6.71-48.89
			c-0.95-13.8-8.34-27.01-2.58-41.51c3.68-9.25-3.46-11.92-10.18-15.29c-20.52-10.29-21.97-25.93-11.39-44.43
			c0.44-0.77,0.75-1.69,1.38-2.27c39.39-36.3,35.29-83.74,35.02-131.01C685.34,186.55,786.18,86,906.52,85.33
			c33.88-0.19,67.44,2.88,100.7,9.48c152.43,30.23,203.95,196.12,139.77,321.64c-9.04,17.68-25.44,31.78-39.22,46.82
			c-41.29,45.08-68.18,95.06-58.69,159.04c1.93,13.02,0.2,26.63-0.28,39.95c-0.23,6.44-2.04,13.11-10.12,13"/>
	</g>
</g>
<g id="lab">
	<g>
		<g>
			<text transform="matrix(1 0 0 1 962.2607 248.5557)" style="fill:#FFFFFF; font-family:'Oswald-Medium'; font-size:34.08px;">25%</text>
		</g>
		<text transform="matrix(1 0 0 1 842.5195 369.7114)" style="fill:#FFFFFF; font-family:'Oswald-Medium'; font-size:34.08px;">75%</text>
	</g>
</g>
<g id="copy">
	<rect y="85.33" style="fill:none;" width="539.18" height="853.33"/>
	<text transform="matrix(1 0 0 1 0 110.9653)"><tspan x="0" y="0" style="font-family:'SourceSansPro-Regular'; font-size:36px;">Europe’s role on the global stage </tspan><tspan x="0" y="43.2" style="font-family:'SourceSansPro-Regular'; font-size:36px;">will be tackled across sessions on </tspan><tspan x="0" y="86.4" style="font-family:'SourceSansPro-Regular'; font-size:36px;">artificial intelligence, climate, </tspan><tspan x="0" y="129.6" style="font-family:'SourceSansPro-Regular'; font-size:36px;">geopolitics, the global economy, </tspan><tspan x="0" y="172.8" style="font-family:'SourceSansPro-Regular'; font-size:36px;">multilateralism, peace and human </tspan><tspan x="0" y="216" style="font-family:'SourceSansPro-Regular'; font-size:36px;">rights, public health, and strategic </tspan><tspan x="0" y="259.2" style="font-family:'SourceSansPro-Regular'; font-size:36px;">autonomy.</tspan></text>
</g>
</svg>
